<mxfile host="app.diagrams.net" modified="2024-04-11T13:50:26.689Z" agent="Mozilla/5.0 (Macintosh; Intel Mac OS X 10_15_7) AppleWebKit/537.36 (KHTML, like Gecko) Chrome/123.0.0.0 Safari/537.36" etag="6COFMSCD0krvxxI_ZB7c" version="24.2.3" type="github">
  <diagram name="Page-1" id="2cc2dc42-3aac-f2a9-1cec-7a8b7cbee084">
    <mxGraphModel dx="1303" dy="1525" grid="1" gridSize="10" guides="1" tooltips="1" connect="1" arrows="1" fold="1" page="1" pageScale="1" pageWidth="1100" pageHeight="850" background="none" math="0" shadow="0">
      <root>
        <mxCell id="0" />
        <mxCell id="1" parent="0" />
        <mxCell id="fBT0Navc_Kn4J6YYu9rq-28" value="" style="group" vertex="1" connectable="0" parent="1">
          <mxGeometry x="1250" y="175" width="800" height="500" as="geometry" />
        </mxCell>
        <mxCell id="fBT0Navc_Kn4J6YYu9rq-4" value="" style="rounded=0;whiteSpace=wrap;html=1;" vertex="1" parent="fBT0Navc_Kn4J6YYu9rq-28">
          <mxGeometry width="800" height="500" as="geometry" />
        </mxCell>
        <mxCell id="fBT0Navc_Kn4J6YYu9rq-5" value="" style="rounded=0;whiteSpace=wrap;html=1;" vertex="1" parent="fBT0Navc_Kn4J6YYu9rq-28">
          <mxGeometry y="60" width="190" height="440" as="geometry" />
        </mxCell>
        <mxCell id="fBT0Navc_Kn4J6YYu9rq-6" value="" style="rounded=0;whiteSpace=wrap;html=1;" vertex="1" parent="fBT0Navc_Kn4J6YYu9rq-28">
          <mxGeometry width="190" height="60" as="geometry" />
        </mxCell>
        <mxCell id="fBT0Navc_Kn4J6YYu9rq-7" value="" style="rounded=0;whiteSpace=wrap;html=1;" vertex="1" parent="fBT0Navc_Kn4J6YYu9rq-28">
          <mxGeometry x="190" y="110" width="610" height="390" as="geometry" />
        </mxCell>
        <mxCell id="fBT0Navc_Kn4J6YYu9rq-8" value="Search" style="strokeWidth=1;shadow=0;dashed=0;align=center;html=1;shape=mxgraph.mockup.forms.searchBox;strokeColor=#999999;mainText=;strokeColor2=#008cff;fontColor=#666666;fontSize=17;align=left;spacingLeft=3;whiteSpace=wrap;" vertex="1" parent="fBT0Navc_Kn4J6YYu9rq-28">
          <mxGeometry x="206" y="15" width="210" height="30" as="geometry" />
        </mxCell>
        <mxCell id="fBT0Navc_Kn4J6YYu9rq-9" value="New project" style="rounded=1;html=1;shadow=0;dashed=0;whiteSpace=wrap;fontSize=10;fillColor=#000000;align=center;strokeColor=#4D4D4D;fontColor=#ffffff;" vertex="1" parent="fBT0Navc_Kn4J6YYu9rq-28">
          <mxGeometry x="680" y="60" width="105.5" height="30" as="geometry" />
        </mxCell>
        <mxCell id="fBT0Navc_Kn4J6YYu9rq-14" value="Import" style="html=1;shadow=0;dashed=0;shape=mxgraph.bootstrap.rrect;rSize=5;strokeColor=#000000;strokeWidth=1;fillColor=#ffffff;fontColor=#777777;whiteSpace=wrap;align=left;verticalAlign=middle;fontStyle=0;fontSize=14;spacingRight=0;spacing=17;" vertex="1" parent="fBT0Navc_Kn4J6YYu9rq-28">
          <mxGeometry x="580" y="60" width="90" height="30" as="geometry" />
        </mxCell>
        <mxCell id="fBT0Navc_Kn4J6YYu9rq-15" value="" style="shape=triangle;direction=south;fillColor=#495057;strokeColor=none;perimeter=none;" vertex="1" parent="fBT0Navc_Kn4J6YYu9rq-14">
          <mxGeometry x="1" y="0.5" width="10" height="5" relative="1" as="geometry">
            <mxPoint x="-17" y="-2.5" as="offset" />
          </mxGeometry>
        </mxCell>
        <mxCell id="fBT0Navc_Kn4J6YYu9rq-16" value="" style="verticalLabelPosition=bottom;shadow=0;dashed=0;align=center;html=1;verticalAlign=top;strokeWidth=1;shape=mxgraph.mockup.graphics.simpleIcon;strokeColor=#999999;" vertex="1" parent="fBT0Navc_Kn4J6YYu9rq-28">
          <mxGeometry x="32.5" y="12.639999999999986" width="125" height="34.72" as="geometry" />
        </mxCell>
        <mxCell id="fBT0Navc_Kn4J6YYu9rq-17" value="" style="rounded=0;whiteSpace=wrap;html=1;fillColor=#000000;" vertex="1" parent="fBT0Navc_Kn4J6YYu9rq-28">
          <mxGeometry y="60" width="190" height="44" as="geometry" />
        </mxCell>
        <mxCell id="fBT0Navc_Kn4J6YYu9rq-18" value="" style="verticalLabelPosition=bottom;shadow=0;dashed=0;align=center;html=1;verticalAlign=top;strokeWidth=1;shape=mxgraph.mockup.graphics.simpleIcon;strokeColor=#999999;" vertex="1" parent="fBT0Navc_Kn4J6YYu9rq-28">
          <mxGeometry x="206" y="130" width="174" height="130" as="geometry" />
        </mxCell>
        <mxCell id="fBT0Navc_Kn4J6YYu9rq-19" value="" style="rounded=0;whiteSpace=wrap;html=1;" vertex="1" parent="fBT0Navc_Kn4J6YYu9rq-28">
          <mxGeometry x="206" y="260" width="174" height="90" as="geometry" />
        </mxCell>
        <mxCell id="fBT0Navc_Kn4J6YYu9rq-20" value="Projects" style="text;html=1;align=left;verticalAlign=middle;whiteSpace=wrap;rounded=0;fontSize=24;" vertex="1" parent="fBT0Navc_Kn4J6YYu9rq-28">
          <mxGeometry x="206" y="65" width="104" height="20" as="geometry" />
        </mxCell>
        <mxCell id="fBT0Navc_Kn4J6YYu9rq-21" value="" style="verticalLabelPosition=bottom;shadow=0;dashed=0;align=center;html=1;verticalAlign=top;strokeWidth=1;shape=mxgraph.mockup.graphics.simpleIcon;strokeColor=#999999;" vertex="1" parent="fBT0Navc_Kn4J6YYu9rq-28">
          <mxGeometry x="359.25" y="63" width="24" height="24" as="geometry" />
        </mxCell>
        <mxCell id="fBT0Navc_Kn4J6YYu9rq-22" value="" style="verticalLabelPosition=bottom;shadow=0;dashed=0;align=center;html=1;verticalAlign=top;strokeWidth=1;shape=mxgraph.mockup.graphics.simpleIcon;strokeColor=#999999;" vertex="1" parent="fBT0Navc_Kn4J6YYu9rq-28">
          <mxGeometry x="320" y="63" width="24" height="24" as="geometry" />
        </mxCell>
        <mxCell id="fBT0Navc_Kn4J6YYu9rq-23" value="Projects" style="text;html=1;align=left;verticalAlign=middle;whiteSpace=wrap;rounded=0;fillColor=none;fontColor=#FFFFFF;fontSize=16;" vertex="1" parent="fBT0Navc_Kn4J6YYu9rq-28">
          <mxGeometry x="32.5" y="67" width="60" height="30" as="geometry" />
        </mxCell>
        <mxCell id="fBT0Navc_Kn4J6YYu9rq-24" value="" style="rounded=1;whiteSpace=wrap;html=1;arcSize=50;" vertex="1" parent="fBT0Navc_Kn4J6YYu9rq-28">
          <mxGeometry x="10" y="73" width="18" height="18" as="geometry" />
        </mxCell>
        <mxCell id="fBT0Navc_Kn4J6YYu9rq-25" value="" style="verticalLabelPosition=bottom;shadow=0;dashed=0;align=center;html=1;verticalAlign=top;strokeWidth=1;shape=mxgraph.mockup.graphics.simpleIcon;strokeColor=#999999;" vertex="1" parent="fBT0Navc_Kn4J6YYu9rq-28">
          <mxGeometry x="710" y="12.639999999999986" width="20" height="20" as="geometry" />
        </mxCell>
        <mxCell id="fBT0Navc_Kn4J6YYu9rq-26" value="" style="verticalLabelPosition=bottom;shadow=0;dashed=0;align=center;html=1;verticalAlign=top;strokeWidth=1;shape=mxgraph.mockup.graphics.simpleIcon;strokeColor=#999999;" vertex="1" parent="fBT0Navc_Kn4J6YYu9rq-28">
          <mxGeometry x="740" y="12.639999999999986" width="20" height="20" as="geometry" />
        </mxCell>
        <mxCell id="fBT0Navc_Kn4J6YYu9rq-27" value="" style="verticalLabelPosition=bottom;shadow=0;dashed=0;align=center;html=1;verticalAlign=top;strokeWidth=1;shape=mxgraph.mockup.graphics.simpleIcon;strokeColor=#999999;" vertex="1" parent="fBT0Navc_Kn4J6YYu9rq-28">
          <mxGeometry x="770" y="12.639999999999986" width="20" height="20" as="geometry" />
        </mxCell>
      </root>
    </mxGraphModel>
  </diagram>
</mxfile>
